<svg width="81" height="109" viewBox="0 0 81 109" fill="none" xmlns="http://www.w3.org/2000/svg">
<path d="M27.2427 14.4763V14.4763C35.8498 8.73829 47.0628 8.73829 55.6698 14.4763V14.4763" stroke="white" stroke-linecap="round"/>
<path d="M27.3899 14.5719L25.5564 10.9778C24.3601 8.63295 22.2876 6.85433 19.7883 6.02783L12.944 3.76447L12.1136 13.6059C11.9363 15.7074 12.2041 17.8226 12.8995 19.8136L15.398 26.9663" stroke="white" stroke-linecap="round"/>
<path d="M55.5225 14.5719L57.356 10.9778C58.5523 8.63295 60.6249 6.85433 63.1241 6.02783L69.9684 3.76447L70.7988 13.6059C70.9761 15.7074 70.7083 17.8226 70.0129 19.8136L67.5144 26.9663" stroke="white" stroke-linecap="round"/>
<path d="M15.2406 28.4279C15.2406 49.2744 23.137 54.486 27.0852 54.486M67.3569 28.4279C67.3569 49.2744 59.4605 54.486 55.5123 54.486M27.0853 56.855C-6.09624 92.3888 27 106.5 27 106.5M55.5123 56.855C72.0957 82.9131 57.0756 99.4956 53.1274 99.4956" stroke="white" stroke-linecap="round"/>
<path d="M39.277 87.7457L31.4438 81.9845C26.9547 78.6829 21.0229 83.5433 23.3774 88.5939V88.5939" stroke="white" stroke-linecap="round"/>
<line x1="15.6352" y1="33.0906" x2="20.373" y2="33.0906" stroke="white" stroke-width="0.15"/>
<rect x="20.0487" y="28.5779" width="18.6514" height="9.1757" rx="0.35" stroke="white" stroke-width="0.3"/>
<rect x="43.9751" y="28.5779" width="18.6514" height="9.1757" rx="0.35" stroke="white" stroke-width="0.3"/>
<path d="M38.8501 32.9283C40.7004 32.9283 43.588 32.9283 43.588 32.9283" stroke="white" stroke-width="0.15"/>
<line x1="62.5394" y1="33.0906" x2="67.2773" y2="33.0906" stroke="white" stroke-width="0.15"/>
<line x1="56.8347" y1="42.5432" x2="80.5239" y2="37.8053" stroke="white" stroke-width="0.2"/>
<line y1="-0.1" x2="24.1584" y2="-0.1" transform="matrix(-0.980581 -0.196116 -0.196116 0.980581 23.6893 42.6412)" stroke="white" stroke-width="0.2"/>
<line x1="56.8543" y1="47.279" x2="80.5435" y2="47.279" stroke="white" stroke-width="0.2"/>
<line y1="-0.1" x2="23.6893" y2="-0.1" transform="matrix(-1 0 0 1 23.6893 47.379)" stroke="white" stroke-width="0.2"/>
<line x1="57.8219" y1="52.0189" x2="80.5638" y2="56.7568" stroke="white" stroke-width="0.2"/>
<line x1="23.7089" y1="52.2149" x2="0.0196171" y2="56.9527" stroke="white" stroke-width="0.2"/>
<path d="M24.163 89.5455L33.6387 96.6523" stroke="white" stroke-linecap="round"/>
<path d="M23.4384 88.6887L24.0057 89.4006" stroke="white" stroke-linecap="round"/>
<path d="M23.6893 34.4118C27.4101 30.9295 29.434 30.7801 33.165 34.4118M47.3785 34.4123C51.0993 30.93 53.1232 30.7806 56.8542 34.4123" stroke="white" stroke-width="0.2"/>
<path d="M15.2363 28.4981L15.3638 27.0035" stroke="white" stroke-linecap="round"/>
<path d="M67.3495 28.4937L67.5031 27.0016" stroke="white" stroke-linecap="round"/>
<path d="M27.2 54.6007V55.6007V56.6007" stroke="white" stroke-linecap="round"/>
<path d="M55.4 54.6007V55.6007V56.6007" stroke="white" stroke-linecap="round"/>
<path d="M39.0039 87.5452L41 89" stroke="white" stroke-linecap="round"/>
<path d="M27.1145 106.013C26.8457 105.95 26.5765 106.117 26.5133 106.385C26.45 106.654 26.6166 106.923 26.8855 106.987L27.1145 106.013ZM43.4896 93.1494L43.0609 93.4066L43.0609 93.4066L43.4896 93.1494ZM44.5522 100.291L44.0672 100.17L44.5522 100.291ZM40.5713 89.2572L43.0609 93.4066L43.9184 92.8921L41.4288 88.7427L40.5713 89.2572ZM44.0672 100.17L43.7269 101.531L44.697 101.773L45.0373 100.412L44.0672 100.17ZM29.7658 106.637L27.1145 106.013L26.8855 106.987L29.5367 107.61L29.7658 106.637ZM40.6506 105.366C37.2827 107.05 33.431 107.5 29.7658 106.637L29.5367 107.61C33.4297 108.527 37.5207 108.049 41.0978 106.26L40.6506 105.366ZM43.0609 93.4066C44.2798 95.4383 44.6418 97.871 44.0672 100.17L45.0373 100.412C45.6763 97.8562 45.2738 95.1512 43.9184 92.8921L43.0609 93.4066ZM43.7269 101.531C43.3103 103.197 42.1866 104.598 40.6506 105.366L41.0978 106.26C42.8949 105.362 44.2097 103.723 44.697 101.773L43.7269 101.531Z" fill="white"/>
<path d="M40 88.5L41 89.5" stroke="white" stroke-width="0.5"/>
</svg>
